<?xml version="1.0" encoding="utf-8"?>
<!-- Generator: Adobe Illustrator 16.0.0, SVG Export Plug-In . SVG Version: 6.00 Build 0)  -->
<!DOCTYPE svg PUBLIC "-//W3C//DTD SVG 1.1//EN" "http://www.w3.org/Graphics/SVG/1.1/DTD/svg11.dtd">
<svg version="1.1" id="Layer_1" xmlns="http://www.w3.org/2000/svg" xmlns:xlink="http://www.w3.org/1999/xlink" x="0px" y="0px"
	 width="176.04px" height="84.02px" viewBox="0 0 176.04 84.02" enable-background="new 0 0 176.04 84.02" xml:space="preserve">
<g>
	<circle fill="#FFFFFF" cx="88.086" cy="42.407" r="38.402"/>
	<path fill="#417FBF" d="M87.999,81.836c-10.417,0-20.21-4.06-27.576-11.424C53.057,63.046,49,53.25,49,42.834
		c0-10.417,4.057-20.21,11.423-27.577C67.789,7.891,77.582,3.834,87.999,3.834c10.418,0,20.212,4.057,27.578,11.423
		C122.941,22.624,127,32.417,127,42.834c0,10.416-4.059,20.212-11.423,27.578C108.211,77.776,98.417,81.836,87.999,81.836z
		 M87.999,6.571c-19.996,0-36.263,16.267-36.263,36.263c0,19.997,16.267,36.264,36.263,36.264c19.996,0,36.263-16.267,36.263-36.264
		C124.262,22.838,107.995,6.571,87.999,6.571z"/>
	<path fill="#417FBF" d="M57.895,21.795h7.526l12.487-9.75l1.729-5.167l2.205-0.308l-1.026,4.79l10.434,5.816l14.883-0.513
		l1.368-5.816c0,0,10.263,6.671,13,11.46c2.737,4.79,3.078,10.948,3.078,10.948l-6.499-0.684l-4.789,12.487l2.736,13.341
		l5.814,0.685l-1.025,2.566l-5.646-1.711l-12.145,9.406l-4.447,9.239c0,0-11.803,2.225-14.881,1.71
		c-3.079-0.513-8.553-3.251-8.553-3.251l-5.303-6.155l-4.105-0.343c0,0-8.895-4.449-10.948-14.197
		c-2.053-9.752-3.593-16.421-2.908-17.962c0.08-0.18,0.198-0.17,0.341-0.015c1.095,1.182,3.764,10.791,3.764,10.791l8.382-1.026
		l6.329-14.026l-4.105-10.775l-7.869,0.17L51.565,37.19c0,0-0.513-9.751,2.053-11.803C56.184,23.335,57.895,21.795,57.895,21.795z"
		/>
	<polygon fill="#FFFFFF" points="71.92,35.308 65.763,49.506 73.802,60.624 88.855,59.426 94.158,46.256 84.921,33.255 	"/>
	<polygon fill="#FFFFFF" points="91.934,19.4 106.473,19.4 115.197,31.544 109.894,43.689 96.725,44.546 87.316,31.373 	"/>
	<polygon fill="#FFFFFF" points="98.775,69.52 89.539,61.479 74.487,62.506 71.237,70.717 79.789,77.9 94.672,76.703 	"/>
</g>
</svg>
