<?xml version="1.0" encoding="utf-8"?>
<!-- Generator: Adobe Illustrator 16.0.0, SVG Export Plug-In . SVG Version: 6.00 Build 0)  -->
<!DOCTYPE svg PUBLIC "-//W3C//DTD SVG 1.1//EN" "http://www.w3.org/Graphics/SVG/1.1/DTD/svg11.dtd">
<svg version="1.1" id="Layer_1" xmlns="http://www.w3.org/2000/svg" xmlns:xlink="http://www.w3.org/1999/xlink" x="0px" y="0px"
	 width="176.04px" height="84.02px" viewBox="0 0 176.04 84.02" enable-background="new 0 0 176.04 84.02" xml:space="preserve">
<g>
	<polygon fill="#417FBF" points="62.718,13.484 50.165,35.612 61.868,43.06 50.377,49.868 62.931,71.784 75.059,65.188 
		75.059,79.019 101.019,79.019 101.019,64.975 112.507,71.571 125.698,49.868 113.57,42.42 125.485,35.399 112.933,13.272 
		101.23,20.081 101.23,6.25 75.271,6.25 75.271,20.293 	"/>
	<circle fill="#FFFFFF" cx="88.038" cy="20.293" r="5.32"/>
	<polygon fill="#FFFFFF" points="84.633,27.102 91.23,27.102 88.89,74.763 87.187,74.763 	"/>
	<path fill="#FFFFFF" d="M83.257,29.348c-0.125-1.429-1.492-2.36-4.039-2.237c-2.548,0.124-4.35,1.118-5.033,1.616
		c-1.578,1.146-2.835,3.545-2.61,5.405c0.374,3.09,2.734,6.151,7.705,6.897c4.97,0.745,11.647,1.141,13.295,2.112
		c3.481,2.05,1.053,4.202-0.62,4.225c-2.744,0.037-9.088,0.001-11.247,2.112c-2.521,2.467-2.371,6.124,0.373,8.389
		c3.542,2.92,12.055,1.74,11.807,4.163c-0.097,0.94-0.621,1.926-2.734,2.547c-2.112,0.623-4.102,0.125-6.027,2.236
		c-2.438,2.676-0.062,6.028,1.181,6.773c1.058,0.636,2.617,1.359,2.174,0.933c-1.801-1.74-2.671-3.542-2.298-5.157
		c0.372-1.616,3.229-1.927,6.151-2.674c3.284-0.838,4.916-3.558,4.536-5.776c-0.505-2.932-3.915-3.293-10.19-4.163
		c-2.077-0.288-3.728-1.491-3.542-3.106c0.186-1.616,0.621-3.418,7.083-3.293c6.462,0.123,8.573-1.74,8.698-4.599
		c0.194-4.46-3.061-6.558-10.874-7.084c-6.303-0.423-9.927-0.861-11.495-2.857c-0.684-0.87-0.684-3.48,0.062-4.039
		c0.378-0.284,2.069,0.583,4.226,0.622C83.38,32.455,83.38,30.777,83.257,29.348z"/>
	<ellipse fill="#417FBF" cx="79.653" cy="28.757" rx="0.87" ry="0.591"/>
</g>
</svg>
