<?xml version="1.0" encoding="utf-8"?>
<!-- Generator: Adobe Illustrator 16.0.0, SVG Export Plug-In . SVG Version: 6.00 Build 0)  -->
<!DOCTYPE svg PUBLIC "-//W3C//DTD SVG 1.1//EN" "http://www.w3.org/Graphics/SVG/1.1/DTD/svg11.dtd">
<svg version="1.1" id="Layer_1" xmlns="http://www.w3.org/2000/svg" xmlns:xlink="http://www.w3.org/1999/xlink" x="0px" y="0px"
	 width="176.04px" height="84.02px" viewBox="0 0 176.04 84.02" enable-background="new 0 0 176.04 84.02" xml:space="preserve">
<ellipse fill="#417FBF" cx="106.019" cy="40.239" rx="15.297" ry="14.022"/>
<path fill="#417FBF" d="M79.11,79.309h51.502c0,0,3.233,0.084,3.759-3.952c0.638-4.914-6.619-13.476-10.378-16.675
	c-1.907-1.622-6.408-4.081-9.983-5.79c-2.786-1.334-6.049-1.405-8.714-1.405c-2.667,0-4.025,0.134-7.194,1.043
	c-5.084,1.457-12.182,6.304-16.189,11.265c-3.092,3.827-5.284,6.888-5.711,9.578C75.9,75.264,76.264,78.825,79.11,79.309z"/>
<path fill="#417FBF" d="M72.306,79.035h-26.6c0,0-3.207-0.283-3.112-4.245c0.078-3.256,4.548-12.705,10.281-19.053
	c5.282-5.849,8.018-8.678,16.412-12.45c0.793-0.356,2.453-1.037,2.453-1.037s-9.149-4.528-9.055-15.752
	C62.78,15.273,69.75,5.766,81.644,5.463c11.131-0.283,17.449,5.848,19.619,8.772c2.159,2.91,2.925,7.734,2.925,7.734
	s-5.484,0.326-8.206,1.886c-4.03,2.311-6.493,4.927-7.924,7.735c-1.655,3.247-2.9,7.534-2.188,11.436
	c1.175,6.439,4.466,8.508,4.466,8.508s-3.432,0.517-7.938,4.863c-4.752,4.585-5.755,5.458-9.111,10.631
	c-2.264,3.489-3.041,6.562-2.679,8.422c0.33,1.703,0.789,2.434,1.166,2.905C72.151,78.827,72.306,79.035,72.306,79.035z"/>
</svg>
