<?xml version="1.0" standalone="no"?><!-- Generator: Adobe Fireworks CS6, Export SVG Extension by Aaron Beall (http://fireworks.abeall.com) . Version: 0.6.1  --><!DOCTYPE svg PUBLIC "-//W3C//DTD SVG 1.1//EN" "http://www.w3.org/Graphics/SVG/1.1/DTD/svg11.dtd"><svg id="Untitled-Page%201" viewBox="0 0 472 66" style="background-color:#ffffff00" version="1.1"	xmlns="http://www.w3.org/2000/svg" xmlns:xlink="http://www.w3.org/1999/xlink" xml:space="preserve"	x="0px" y="0px" width="472px" height="66px">	<g>		<text x="287" y="42" width="243" fill="#1f1f1f" style="font-size: 15px; color: #1f1f1f; font-family: Raleway; text-align: left; "><tspan><![CDATA[A better parents’ network]]></tspan></text>		<g>			<g>				<g>					<g>						<image x="33" y="0" width="13" height="49" xlink:href="kinstantly-logo-home.svg.images/image1.png"/>						<path d="M 39.2456 0.0137 C 42.5855 0.0137 44.8522 2.3564 44.8522 5.2746 C 44.8522 8.3146 42.5855 10.5328 39.2456 10.5328 C 35.7817 10.5328 33.6393 8.3146 33.6393 5.2746 C 33.6393 2.3564 35.7817 0.0137 39.2456 0.0137 ZM 33.9545 46.9732 L 33.9545 14.5247 L 44.5381 14.5247 L 44.5381 46.9732 L 33.9545 46.9732 Z" fill="#ed465a"/>						<image x="50" y="13" width="30" height="35" xlink:href="kinstantly-logo-home.svg.images/image2.png"/>						<path d="M 50.7754 46.9732 L 50.7754 21.0542 L 50.0193 14.5247 L 58.7766 14.5247 L 59.4064 18.0113 C 61.4227 15.2853 64.3826 13.5746 68.6036 13.5746 C 74.7783 13.5746 78.6824 17.0612 78.6824 24.793 L 78.6824 46.9732 L 68.0999 46.9732 L 68.0999 26.6299 C 68.0999 23.7156 67.785 21.6873 65.3282 21.6873 C 62.7451 21.6873 61.2322 23.7156 61.2322 26.4391 L 61.2322 46.9732 L 50.7754 46.9732 Z" fill="#ed465a"/>						<image x="82" y="13" width="28" height="36" xlink:href="kinstantly-logo-home.svg.images/image3.png"/>						<path d="M 84.9191 36.9599 C 87.2503 38.4828 91.471 40.2561 94.3065 40.2561 C 96.1966 40.2561 97.3317 39.6214 97.3317 37.848 C 97.3317 35.946 95.5036 35.3141 93.2346 34.6165 C 88.2576 33.0318 83.2817 31.1304 83.2817 24.2849 C 83.2817 17.3157 88.8258 13.5746 95.8813 13.5746 C 100.9229 13.5746 105.4565 15.4771 108.5446 18.3284 L 103.7578 24.4119 C 100.9846 22.2577 98.4019 21.1171 96.4484 21.1171 C 94.6833 21.1171 93.5499 21.8765 93.5499 23.3974 C 93.5499 25.2368 95.3138 26.0588 97.8973 26.8846 C 102.5598 28.4043 107.7883 30.433 107.7883 37.1521 C 107.7883 44.2489 102.6854 47.9888 94.9369 47.9888 C 89.0773 47.9888 84.1634 45.8347 82.2122 44.4393 L 84.9191 36.9599 Z" fill="#ed465a"/>						<image x="112" y="3" width="21" height="47" xlink:href="kinstantly-logo-home.svg.images/image4.png"/>						<path d="M 122.8439 2.9276 L 122.8439 14.5247 L 130.7189 14.5247 L 130.7189 22.829 L 122.8439 22.829 L 122.8439 35.6304 C 122.8439 39.1147 124.4828 40.0028 126.6255 40.0028 C 127.821 40.0028 128.9553 39.5585 130.0262 38.9889 L 132.2941 45.6442 C 130.3409 46.9115 126.8773 47.9888 123.349 47.9888 C 112.6383 47.9888 112.1975 41.7144 112.1975 35.3782 L 112.1975 2.9276 L 122.8439 2.9276 Z" fill="#ed465a"/>						<image x="133" y="13" width="31" height="36" xlink:href="kinstantly-logo-home.svg.images/image5.png"/>						<path d="M 162.3416 40.1303 L 163.0362 46.9732 L 154.0912 46.9732 L 153.6512 43.995 L 153.2715 43.9321 C 151.3831 46.9115 148.422 47.9248 145.1461 47.9248 C 135.5046 47.9248 133.0504 40.1303 133.0504 32.2083 C 133.0504 21.0542 138.6555 13.5746 150.1223 13.5746 C 152.3915 13.5746 157.2421 14.1461 162.3416 16.1087 L 162.3416 40.1303 ZM 151.8861 21.498 C 151.1932 21.2429 150.1223 21.0542 148.9882 21.0542 C 144.8937 21.0542 143.5089 25.9968 143.5089 31.4475 C 143.5089 36.3286 144.3895 40.3837 148.0429 40.3837 C 150.5003 40.3837 151.8861 38.6103 151.8861 36.7707 L 151.8861 21.498 Z" fill="#ed465a"/>						<image x="167" y="13" width="30" height="35" xlink:href="kinstantly-logo-home.svg.images/image6.png"/>						<path d="M 168.1653 46.9732 L 168.1653 21.0542 L 167.4099 14.5247 L 176.1656 14.5247 L 176.7977 18.0113 C 178.8118 15.2853 181.7745 13.5746 185.9941 13.5746 C 192.1691 13.5746 196.0738 17.0612 196.0738 24.793 L 196.0738 46.9732 L 185.491 46.9732 L 185.491 26.6299 C 185.491 23.7156 185.1761 21.6873 182.717 21.6873 C 180.1374 21.6873 178.6248 23.7156 178.6248 26.4391 L 178.6248 46.9732 L 168.1653 46.9732 Z" fill="#ed465a"/>						<image x="201" y="3" width="21" height="47" xlink:href="kinstantly-logo-home.svg.images/image7.png"/>						<path d="M 212.0397 2.9276 L 212.0397 14.5247 L 219.9139 14.5247 L 219.9139 22.829 L 212.0397 22.829 L 212.0397 35.6304 C 212.0397 39.1147 213.6769 40.0028 215.8199 40.0028 C 217.0176 40.0028 218.1506 39.5585 219.2209 38.9889 L 221.4874 45.6442 C 219.537 46.9115 216.0706 47.9888 212.5434 47.9888 C 201.8333 47.9888 201.3922 41.7144 201.3922 35.3782 L 201.3922 2.9276 L 212.0397 2.9276 Z" fill="#ed465a"/>						<image x="224" y="3" width="21" height="47" xlink:href="kinstantly-logo-home.svg.images/image8.png"/>						<path d="M 234.7185 2.9276 L 234.7185 35.5028 C 234.7185 38.3564 235.412 39.686 237.4283 39.686 C 238.3725 39.686 239.6333 39.2434 241.0823 38.6103 L 243.3498 45.6442 C 241.1454 47.1008 237.3635 47.9888 234.5298 47.9888 C 224.7639 47.9888 224.1989 42.4109 224.1989 36.3286 L 224.1989 2.9276 L 234.7185 2.9276 Z" fill="#ed465a"/>						<image x="244" y="15" width="30" height="51" xlink:href="kinstantly-logo-home.svg.images/image9.png"/>						<path d="M 272.1041 48.6865 C 271.1582 58.8268 266.1804 63.8328 256.9198 63.8328 C 249.738 63.8328 245.9573 60.4743 245.9573 55.0874 C 245.9573 50.7767 248.226 47.2271 252.1954 44.3135 C 246.8395 43.2973 244.3184 39.4967 244.3184 34.2362 L 244.3184 14.5247 L 254.903 14.5247 L 254.903 32.7785 C 254.903 36.1994 255.0939 38.3564 258.1163 38.3564 C 260.1952 38.3564 261.7078 36.7707 261.7078 34.1086 L 261.7078 14.5247 L 272.2911 14.5247 L 272.2911 39.813 C 272.2911 41.5886 272.2911 46.7839 272.1041 48.6865 ZM 258.2431 56.3552 C 261.1416 56.3552 261.9602 53.5662 261.9602 49.3842 L 261.9602 43.995 C 258.6848 45.9587 255.4083 48.7483 255.4083 53.3129 C 255.4083 54.8969 256.2263 56.3552 258.2431 56.3552 Z" fill="#ed465a"/>						<image x="0" y="3" width="32" height="46" xlink:href="kinstantly-logo-home.svg.images/image10.png"/>						<path d="M 10.4415 25.7052 L 14.0267 25.7052 L 19.2465 14.5138 L 30.3175 14.5138 L 22.6733 29.2587 L 30.5287 46.9732 L 19.2465 46.9732 L 13.9736 33.6609 L 10.4415 33.6609 L 10.4415 46.9732 L 0.2183 46.9732 L 0.2183 2.9711 L 10.4415 2.9711 L 10.4415 25.7052 Z" fill="#ed465a"/>					</g>				</g>			</g>		</g>	</g></svg>