<?xml version="1.0" encoding="utf-8"?>
<!-- Generator: Adobe Illustrator 16.0.0, SVG Export Plug-In . SVG Version: 6.00 Build 0)  -->
<!DOCTYPE svg PUBLIC "-//W3C//DTD SVG 1.1//EN" "http://www.w3.org/Graphics/SVG/1.1/DTD/svg11.dtd">
<svg version="1.1" id="Layer_1" xmlns="http://www.w3.org/2000/svg" xmlns:xlink="http://www.w3.org/1999/xlink" x="0px" y="0px"
	 width="176.04px" height="84.02px" viewBox="0 0 176.04 84.02" enable-background="new 0 0 176.04 84.02" xml:space="preserve">
<g>
	<path fill="#417FBF" d="M29.975,78.409c0.886-0.758,6.738-8.282,8.118-10.58c2.107-3.512,3.145-11.312,3.145-11.312
		s-3.418-2.416-3.425-5.121c-0.01-3.122,1.475-4.774,3.044-5.635c0.939-0.513-0.236-2.583,1.393-7.972
		c2.153-7.125,4.176-7.972,4.176-7.972l-12.781-4.43c0,0-3.207-2.012-0.126-4.175c3.25-2.283,56.185-18.729,56.185-18.729
		l55.554,18.602c0,0,0.076,0.031,0.186,0.076c0.964,0.395,2.861,2.915-0.059,4.226c-4.027,1.811-55.555,18.603-55.555,18.603
		l-31.002-9.997l31.637-12.149c0,0,3.141-1.478,1.375-4.361c-1.208-1.965-4.146-0.896-4.146-0.896l-33.798,13.67
		c0,0-3.792,2.458-5.197,6.04c-1.727,4.402-1.893,9.464-1.893,9.464s2.975,2.321,2.658,5.568c-0.274,2.804-2.658,4.556-2.658,4.556
		s2.278,11.516,0.886,16.704c-1.393,5.188-4.682,9.743-8.099,10.376C36.176,83.599,29.975,78.409,29.975,78.409z"/>
	<path fill="#417FBF" d="M53.974,38.677c0,0-1.378,5.947-0.871,6.309c1.044,0.748,4.181,3.827,4.279,7.182
		c0.146,4.932-2.465,7.035-2.465,7.035s7.688,10.01,34.816,10.01c25.315,0,34.381-8.341,36.121-12.403s0.217-0.58,0.217-0.58
		l0.292-17.988c0,0-35.034,11.966-36.776,12.042C87.847,50.354,53.974,38.677,53.974,38.677z"/>
</g>
</svg>
