<?xml version="1.0" encoding="utf-8"?>
<!-- Generator: Adobe Illustrator 16.0.0, SVG Export Plug-In . SVG Version: 6.00 Build 0)  -->
<!DOCTYPE svg PUBLIC "-//W3C//DTD SVG 1.1//EN" "http://www.w3.org/Graphics/SVG/1.1/DTD/svg11.dtd">
<svg version="1.1" id="Layer_1" xmlns="http://www.w3.org/2000/svg" xmlns:xlink="http://www.w3.org/1999/xlink" x="0px" y="0px"
	 width="176.04px" height="84.02px" viewBox="0 0 176.04 84.02" enable-background="new 0 0 176.04 84.02" xml:space="preserve">
<g>
	<path fill="#417FBF" d="M56.982,55.184c0,0-5.756-3.378-8.722-6.025c-1.486-1.326-2.958-2.737-4.145-3.972
		c-1.939-2.018-2.067-2.15-2.28-3.006c-0.304-1.215-0.242-2.336,1.521-6.57c1.075-2.581,2.76-6.217,4.15-9.199
		c6.136-13.159,7.694-14.054,8.3-14.801c1.217-1.5,3.401-1.458,4.772-0.761c5.978,3.04,15.746,2.892,19.712,2.559
		c0,0,2.974,0.139,3.056,2.792c0.094,3.085-2.373,3.663-2.373,3.663c-0.609,0.052-12.462,1.172-21.546-2.215
		c-1.074,1.653-2.976,5.059-5.842,11.164c-2.326,4.954-4.1,9.149-4.912,11.243c0.701,1.366,2.476,3.197,4.574,5.031
		c3.184,2.786,7.608,5.119,7.608,5.119s1.714,1.04,0.288,3.547C59.542,56.567,56.982,55.184,56.982,55.184z"/>
</g>
<path fill="#417FBF" d="M133.401,37.151c0.01-0.382-15.402-29.562-15.402-29.562s-7.799,6.283-9.625,6.082
	c-2.576-0.283-12.343-1.506-14.769-1.458c-4.11,0.083-13.25,11.351-13.827,12.938c-0.576,1.588-1.794,9.242,1.209,11.152
	c3.002,1.912,4.021,1.351,5.474,0.832c1.229-0.439,2.718-1.761,2.567-4.741c-0.15-2.98,0.624-5.668,3.592-5.934
	c3.289-0.295,5.384,1.286,8.004,6.164s8.726,8.259,11.91,9.754c11.534,5.418,10.716,7.456,10.784,9.387
	c0.088,2.444-2.435,3.082-3.356,2.969c-2.562-0.312-7.863-4.202-8.134-4.107c-0.842,0.297-1.079,0.354-1.03,1.423
	c0.048,1.07,6.558,5.976,6.569,8.494c0.006,1.457-1.623,3.621-3.681,3.49c-3.719-0.236-9.672-6.59-10.432-6.688
	c-0.762-0.096-2.238,0.934-1.883,1.858c0.358,0.927,6.625,6.435,7.41,8.516c0.425,1.129-0.346,4.419-4.3,3.855
	c-2.193-0.312-7.794-7.1-8.852-7.075c-1.075,0.027-10.458,8.506-10.163,10.314c0.262,1.609,2.562,3.575,3.565,3.758
	c1.712,0.311,2.283-0.913,2.88-0.364c0.596,0.551,4.098,2.702,6.555,2.155c2.457-0.546,4.044-2.441,4.301-3.789
	c0.284-1.483,0.278-2.671,0.278-2.671s1.512,0.574,3.109,0.77c1.824,0.222,5.014-2.005,5.404-5.277c0.149-1.249-0.31-2.68-0.31-2.68
	s0.772,0.586,3.199,0.237c3.394-0.487,5.258-3.755,5.559-4.739c0.403-1.314-0.923-4.713-0.923-4.713s1.104-0.027,2.416-0.36
	c2.059-0.525,4.028-2.261,4.544-4.459c0.516-2.201-0.614-5.665-0.614-5.665S133.391,37.533,133.401,37.151z M98.93,77.259
	c-1.937,1.692-5.496-1.284-5.496-1.284l4.198-5.012C97.632,70.963,102.15,74.443,98.93,77.259z"/>
<path fill="#417FBF" d="M86.244,59.124c0,0-10.453,11.215-10.682,12.818c-0.142,0.992,1.221,4.272,3.892,4.196
	c3.051-0.088,7.958-7.12,8.474-7.746c0.479-0.581,4.191-4.919,3.429-6.904C90.594,59.505,88.152,57.75,86.244,59.124z"/>
<path fill="#417FBF" d="M79.148,52.027c0,0-12.331,12.366-12.59,13.963c-0.458,2.823,2.005,5.456,4.655,5.112
	c2.678-0.347,8.292-8.187,9.525-9.933c0.845-1.198,4.286-4.793,3.522-6.776C83.498,52.409,81.056,50.654,79.148,52.027z"/>
<path fill="#417FBF" d="M91.318,61.45c-0.764-1.983-3.205-3.738-5.113-2.365c0,0-10.453,11.217-10.682,12.819
	c-0.142,0.992,1.221,4.272,3.891,4.195"/>
<path fill="#417FBF" d="M69.535,48.137c0,0-9.843,10.147-10.072,11.75c-0.142,0.993,1.453,4.424,4.12,4.272
	c2.604-0.149,6.701-5.99,8.088-7.706c1.364-1.686,4.349-4.578,3.586-6.562S71.441,46.763,69.535,48.137z"/>
</svg>
